<?xml version="1.0" encoding="UTF-8" standalone="no"?>
<!-- Created with Inkscape (http://www.inkscape.org/) -->

<svg
   viewBox="0 0 132.08115 132.08115"
   version="1.1"
   id="svg1"
   xmlns="http://www.w3.org/2000/svg"
   xmlns:svg="http://www.w3.org/2000/svg">
  <defs
     id="defs1" />
  <g
     id="layer1"
     transform="translate(-71.479005,-79.61867)">
    <path
       style="opacity:1;fill:#000000;stroke:#ffffff;stroke-width:1.82919"
       d="m 135.57939,80.533265 c 22.6817,3e-6 43.64046,12.100549 54.98131,31.743485 11.34085,19.64293 11.34085,43.84404 0,63.48698 -11.34085,19.64291 -32.29961,31.74347 -54.98131,31.74347"
       id="path16" />
    <path
       style="opacity:1;fill:#ffffff;stroke:#000000;stroke-width:1.82919;stroke-opacity:1"
       d="m 135.88,80.533265 c -22.68171,3e-6 -43.64048,12.100548 -54.981319,31.743485 -11.340847,19.64292 -11.340847,43.84403 0,63.48696 11.340839,19.64292 32.299609,31.74347 54.981319,31.74347"
       id="path14" />
    <path
       d="m 100.16076,111.50145 v 7.14375 h -7.143751 v 7.14375 h 7.143751 v 14.2875 H 85.873259 v -7.14375 h -7.14375 v 7.14375 h -7.14375 v 7.14375 h 7.14375 v 7.14375 h 7.14375 v -7.14375 h 14.287501 v 14.2875 h -7.143751 v 7.14375 h 7.143751 v 7.14375 h 7.14375 v -7.14375 h 7.14375 v -7.14375 h -7.14375 v -14.2875 h 14.2875 v 7.14375 h 7.14375 v -7.14375 h 7.14375 v -7.14375 h -7.14375 v -7.14375 h -7.14375 v 7.14375 h -14.2875 v -14.2875 h 7.14375 v -7.14375 h -7.14375 v -7.14375 z"
       id="path786"
       style="stroke-width:0.264583" />
    <path
       d="m 164.45451,111.50146 v 7.14375 h -7.14375 v 7.14374 h 7.14375 v 14.2875 h -14.2875 v -7.14375 h -7.14375 v 7.14375 h -7.14375 v 7.14375 h 7.14375 v 7.14376 h 7.14375 v -7.14376 h 14.2875 v 14.2875 h -7.14375 v 7.14375 h 7.14375 v 7.14376 h 7.14375 v -7.14376 h 7.14375 v -7.14375 h -7.14375 v -14.2875 h 14.2875 v 7.14376 h 7.14375 v -7.14376 h 7.14375 v -7.14375 h -7.14375 v -7.14375 h -7.14375 v 7.14375 h -14.2875 v -14.2875 h 7.14375 v -7.14374 h -7.14375 v -7.14375 z"
       id="path786-7"
       style="fill:#ffffff;stroke-width:0.264583" />
  </g>
</svg>
